<svg xmlns="http://www.w3.org/2000/svg" version="1.1" xmlns:xlink="http://www.w3.org/1999/xlink" xmlns:svgjs="http://svgjs.com/svgjs" width="1440" height="560" preserveAspectRatio="none" viewBox="0 0 1440 560"><g mask="url(&quot;#SvgjsMask1077&quot;)" fill="none"><rect width="1440" height="560" x="0" y="0" fill="rgba(43, 43, 43, 1)"></rect><path d="M1440 0L930.54 0L1440 68.19z" fill="rgba(255, 255, 255, .1)"></path><path d="M930.54 0L1440 68.19L1440 298.84000000000003L478.39 0z" fill="rgba(255, 255, 255, .075)"></path><path d="M478.3900000000001 0L1440 298.84000000000003L1440 354.32000000000005L465.1300000000001 0z" fill="rgba(255, 255, 255, .05)"></path><path d="M465.1300000000001 0L1440 354.32000000000005L1440 383.72L366.2000000000001 0z" fill="rgba(255, 255, 255, .025)"></path><path d="M0 560L348.83 560L0 557.69z" fill="rgba(0, 0, 0, .1)"></path><path d="M0 557.69L348.83 560L557.35 560L0 433.14000000000004z" fill="rgba(0, 0, 0, .075)"></path><path d="M0 433.14L557.35 560L714.3 560L0 261.17999999999995z" fill="rgba(0, 0, 0, .05)"></path><path d="M0 261.18L714.3 560L1185.9 560L0 86.09z" fill="rgba(0, 0, 0, .025)"></path></g><defs><mask id="SvgjsMask1077"><rect width="1440" height="560" fill="#ffffff"></rect></mask></defs></svg>